<?xml version="1.0" encoding="UTF-8"?>
<svg version="1.1" xmlns="http://www.w3.org/2000/svg" width="1024" height="1024">
<path d="M0 0 C337.92 0 675.84 0 1024 0 C1024 337.92 1024 675.84 1024 1024 C686.08 1024 348.16 1024 0 1024 C0 686.08 0 348.16 0 0 Z " fill="#FDFDFD" transform="translate(0,0)"/>
<path d="M0 0 C0.82703104 -0.00297112 1.65406207 -0.00594224 2.50615466 -0.0090034 C5.26393 -0.01764092 8.02166169 -0.01919447 10.77944946 -0.02069092 C12.76272676 -0.02532277 14.74600318 -0.03034792 16.72927856 -0.03573608 C22.10999886 -0.04883076 27.49070668 -0.05529986 32.87144041 -0.05974674 C36.23939524 -0.06268352 39.60734671 -0.06678956 42.97529984 -0.07125092 C53.5306911 -0.08492102 64.08607463 -0.09458884 74.64147413 -0.09845281 C86.79187187 -0.10292595 98.94215669 -0.12044138 111.09252012 -0.1494534 C120.50516561 -0.17114131 129.91777951 -0.18116095 139.3304497 -0.18249393 C144.94186478 -0.1835373 150.55317364 -0.18934438 156.16456223 -0.20731354 C161.45220179 -0.22391647 166.73965672 -0.22589101 172.02731323 -0.21717453 C173.95525231 -0.21641053 175.88320182 -0.22066151 177.81111526 -0.23063278 C192.74039142 -0.30324366 207.31116171 0.80973271 221.52798462 5.76544189 C222.62952881 6.14394287 222.62952881 6.14394287 223.75332642 6.53009033 C252.33861023 16.7982051 275.56282533 37.92220237 288.83071899 65.17437744 C296.59857083 81.74512735 300.66892399 98.83593476 300.68911743 117.09844971 C300.69408234 118.18085938 300.69904724 119.26326904 300.7041626 120.378479 C300.71873259 123.95018154 300.72558027 127.52183955 300.73110962 131.09356689 C300.733937 132.32114464 300.73676437 133.54872238 300.73967743 134.81349945 C300.75311415 140.64996934 300.76300878 146.48642328 300.76687932 152.32290769 C300.77177838 159.6658446 300.79479552 167.00848915 300.82619095 174.35136795 C300.84495901 179.52144935 300.85003057 184.69148259 300.85155487 189.86159515 C300.85455382 192.31880565 300.86248719 194.77601586 300.87574005 197.23319244 C301.06127432 234.30080692 292.93299818 267.99983512 266.42642212 295.24200439 C265.46278737 296.21065481 264.49683483 297.17700803 263.52798462 298.14044189 C262.77775024 298.89067627 262.02751587 299.64091064 261.25454712 300.41387939 C234.14617994 325.90985299 199.11565947 329.65258953 163.72322655 329.30661011 C158.91654271 329.26087679 154.11008444 329.24778872 149.3032074 329.24078369 C135.65030721 329.2174745 121.99797435 329.17646462 108.34561157 329.04815674 C100.7703265 328.97722781 93.19595101 328.9459749 85.62033159 328.9584465 C81.62969288 328.96333287 77.6414354 328.94842723 73.6512661 328.88391113 C54.08393441 327.75220863 54.08393441 327.75220863 36.91201782 335.37091064 C35.01794066 337.22166237 33.2953701 339.16119497 31.52798462 341.14044189 C29.25956603 343.0623066 26.90179343 344.85159638 24.52798462 346.64044189 C23.35947738 347.55476116 22.19258416 348.47115043 21.02798462 349.39044189 C14.02798462 354.89044189 14.02798462 354.89044189 12.2784729 356.26495361 C11.1100431 357.18307544 9.94174914 358.10137015 8.77359009 359.01983643 C5.88497956 361.29066559 2.99418914 363.55859136 0.09829712 365.82012939 C-6.99690671 371.3680392 -14.02243559 376.99063292 -20.96762085 382.72589111 C-33.21300646 392.76817131 -33.21300646 392.76817131 -42.47201538 392.14044189 C-47.72920264 390.24785448 -50.3020407 387.57840645 -53.47201538 383.14044189 C-54.68445708 379.71850019 -54.54134213 376.48134582 -54.45516968 372.87823486 C-54.42992722 371.60946503 -54.40468475 370.34069519 -54.37867737 369.03347778 C-54.35707078 368.01969873 -54.35707078 368.01969873 -54.33502769 366.9854393 C-54.25459994 362.62584276 -54.24273062 358.26540655 -54.21992779 353.90519524 C-54.19609705 350.08389635 -54.14727082 346.26613239 -54.04354858 342.44610596 C-52.60763915 325.14766715 -52.60763915 325.14766715 -58.45565796 310.04962158 C-61.82889106 307.32962028 -65.51444362 305.84953841 -69.47201538 304.14044189 C-73.80965224 300.89412922 -77.61593056 296.9359311 -81.47201538 293.14044189 C-82.25060913 292.38634033 -83.02920288 291.63223877 -83.83139038 290.85528564 C-104.14949042 269.8527106 -113.57167226 239.71127649 -113.64901733 211.01885986 C-113.65558853 209.94258331 -113.66215973 208.86630676 -113.66893005 207.75741577 C-113.68854218 204.21581939 -113.70030352 200.67426535 -113.71029663 197.13262939 C-113.71437216 195.9118784 -113.71844769 194.6911274 -113.72264671 193.43338394 C-113.74346394 186.96187768 -113.75778003 180.49039229 -113.7671814 174.01885986 C-113.77718287 167.39724018 -113.8125374 160.77592961 -113.8523531 154.15441704 C-113.87874739 149.00991272 -113.88689365 143.8654866 -113.89046288 138.72092056 C-113.89527629 136.28375083 -113.9067362 133.8465833 -113.92550087 131.40948105 C-114.15868393 99.09603907 -108.714313 67.01726408 -86.47201538 42.14044189 C-85.79783569 41.33606689 -85.12365601 40.53169189 -84.42904663 39.70294189 C-63.5208957 15.32914117 -32.31105466 -0.03675262 0 0 Z " fill="#0075E1" transform="translate(418.4720153808594,217.85955810546875)"/>
<path d="M0 0 C61.6 0 61.6 0 72.0625 7.75 C78.5532483 14.30040591 80.36499356 19.37043422 80.5 28.5 C80.405768 35.93953667 79.55096554 41.19659615 74.3515625 46.765625 C71.14015319 49.76667999 68.53842136 51.72494416 64 52 C64 52.66 64 53.32 64 54 C64.825 54.04125 65.65 54.0825 66.5 54.125 C72.83490844 55.70872711 77.33733663 59.56306013 80.875 65 C85.62210551 73.48724925 86.30293155 81.82560297 83.875 91.25 C81.11069996 99.36289919 75.51730576 104.22756165 68 108 C60.16279114 111.19697127 52.71037445 111.39997326 44.3359375 111.29296875 C42.64078003 111.28843689 42.64078003 111.28843689 40.91137695 111.28381348 C36.73249032 111.2682426 32.55373496 111.22635969 28.375 111.1875 C19.01125 111.125625 9.6475 111.06375 0 111 C0 74.37 0 37.74 0 0 Z " fill="#0F181C" transform="translate(188,671)"/>
<path d="M0 0 C8.79877096 6.71639517 15.80238252 15.18143154 19.34375 25.7890625 C19.34375 27.4390625 19.34375 29.0890625 19.34375 30.7890625 C12.08375 30.7890625 4.82375 30.7890625 -2.65625 30.7890625 C-3.3575 29.2421875 -4.05875 27.6953125 -4.78125 26.1015625 C-8.22731535 19.22884625 -12.51530111 15.78608443 -19.65625 12.7890625 C-22.459445 12.35166712 -25.19800997 12.31147244 -28.03125 12.3515625 C-29.16506104 12.36509766 -29.16506104 12.36509766 -30.32177734 12.37890625 C-38.38144709 12.63006237 -42.8682886 14.6535303 -48.40625 20.5390625 C-57.29540314 31.5138256 -58.79084667 43.93280062 -57.65625 57.7890625 C-55.6399339 68.15705152 -51.84757909 77.19207434 -42.96875 83.2890625 C-35.92125263 87.67092615 -28.70720796 87.48702861 -20.65625 86.7890625 C-13.14334875 84.69562387 -8.5186754 80.44302278 -4.65625 73.7890625 C-3.66625 71.8090625 -2.67625 69.8290625 -1.65625 67.7890625 C5.27375 67.7890625 12.20375 67.7890625 19.34375 67.7890625 C16.35084293 81.25714431 10.71486457 91.70046181 -0.84375 99.5390625 C-14.14232828 107.38181379 -28.1961221 108.85164143 -43.32421875 106.12890625 C-56.4806114 102.19730638 -66.463297 93.02700023 -72.90771484 81.10961914 C-80.88369263 65.54490041 -83.76970858 47.62074775 -78.6875 30.5859375 C-75.03104939 20.66920024 -70.17060384 13.21319254 -62.65625 5.7890625 C-62.01816406 5.1290625 -61.38007812 4.4690625 -60.72265625 3.7890625 C-45.50369842 -10.89201116 -17.24632294 -11.36689466 0 0 Z " fill="#0E171B" transform="translate(589.65625,677.2109375)"/>
<path d="M0 0 C6.77144439 5.45018695 9.9276873 12.73964429 10.95153809 21.32455444 C11.11644675 24.90188542 11.16830882 28.46186341 11.171875 32.04296875 C11.18841125 33.33697098 11.20494751 34.63097321 11.22198486 35.96418762 C11.26523554 39.36545802 11.28556185 42.76647269 11.30072021 46.16796875 C11.32044613 49.65444808 11.36239724 53.14065722 11.40234375 56.62695312 C11.47718599 63.43872597 11.52569336 70.25041635 11.5625 77.0625 C5.2925 77.0625 -0.9775 77.0625 -7.4375 77.0625 C-8.4275 74.4225 -9.4175 71.7825 -10.4375 69.0625 C-11.159375 69.825625 -11.88125 70.58875 -12.625 71.375 C-20.25828104 78.6690241 -28.95912779 79.57468766 -39.22265625 79.37109375 C-46.87514021 78.63652968 -52.89380854 75.69599897 -58.03125 69.96484375 C-62.89636594 63.38342302 -63.37532413 56.05017445 -62.4375 48.0625 C-60.64969692 41.43975776 -56.02941607 36.82537368 -50.4375 33.0625 C-43.80470626 29.45361222 -36.7219125 28.88937725 -29.3125 27.9375 C-26.80975574 27.60260777 -24.30714578 27.26670998 -21.8046875 26.9296875 C-20.70237793 26.78644043 -19.60006836 26.64319336 -18.46435547 26.49560547 C-15.76158276 26.10887222 -13.10765813 25.62878441 -10.4375 25.0625 C-11.20733326 18.13193587 -11.20733326 18.13193587 -14.9375 12.5 C-20.13003289 9.51429359 -24.49625715 9.60871342 -30.4375 10.0625 C-33.89146101 10.99613282 -33.89146101 10.99613282 -36.4375 13.0625 C-36.93894531 14.0834375 -37.44039062 15.104375 -37.95703125 16.15625 C-40.4375 19.0625 -40.4375 19.0625 -42.63256836 19.55029297 C-45.33957721 19.65364728 -47.98266746 19.58524295 -50.6875 19.4375 C-51.62335937 19.41042969 -52.55921875 19.38335938 -53.5234375 19.35546875 C-55.8304724 19.28484523 -58.13280769 19.18630579 -60.4375 19.0625 C-59.32005153 11.26227145 -56.44776432 6.27414707 -50.3515625 1.41015625 C-35.45436734 -9.07868524 -15.50355059 -8.73836488 0 0 Z " fill="#0E171A" transform="translate(768.4375,704.9375)"/>
<path d="M0 0 C7.92395472 5.37298338 13.12004126 13.4328542 15.50390625 22.671875 C16.78300006 29.57719264 16.75 35.52444515 16.75 42.75 C-2.06 42.75 -20.87 42.75 -40.25 42.75 C-39.02942928 52.17413769 -39.02942928 52.17413769 -33.69921875 58.93359375 C-27.86683604 62.42336311 -21.88258634 62.52535868 -15.25 61.75 C-11.73178191 60.49349354 -9.92014739 59.69526053 -7.765625 56.65625 C-3.71199684 53.58455661 0.57031509 54.32933181 5.5 54.5 C6.48355469 54.51804687 7.46710938 54.53609375 8.48046875 54.5546875 C10.90463783 54.60175874 13.32682059 54.66749258 15.75 54.75 C13.01127845 64.08137813 8.8600803 70.58290301 0.3125 75.6875 C-6.98301172 79.26736193 -13.78460336 79.91933941 -21.8125 80 C-22.87500977 80.0141394 -22.87500977 80.0141394 -23.95898438 80.02856445 C-33.79411651 79.96817729 -43.36106857 76.98346207 -50.80859375 70.34765625 C-56.41662081 64.13171298 -59.29451655 56.76888898 -61.25 48.75 C-61.435625 48.09773437 -61.62125 47.44546875 -61.8125 46.7734375 C-64.41956839 34.71574622 -61.33033134 20.96017832 -54.9375 10.62890625 C-42.57809887 -7.13773288 -18.32474783 -10.41725815 0 0 Z " fill="#0E171B" transform="translate(483.25,704.25)"/>
<path d="M0 0 C6.6 0 13.2 0 20 0 C20.33 12.54 20.66 25.08 21 38 C22.98 35.525 22.98 35.525 25 33 C33.98802983 26.30616841 43.28264965 25.75602183 54 27 C60.62834689 28.70211625 66.61939411 32.40005939 70.44140625 38.1796875 C73.79474157 44.00742125 75.12749098 48.29436499 75.11352539 55.05371094 C75.11341209 56.88515656 75.11341209 56.88515656 75.11329651 58.75360107 C75.10813522 60.06725647 75.10297394 61.38091187 75.09765625 62.734375 C75.09579021 64.0962926 75.09436718 65.45821088 75.09336853 66.82012939 C75.08955803 70.39741889 75.07974032 73.97466752 75.06866455 77.55194092 C75.05841884 81.20519457 75.05386415 84.85845486 75.04882812 88.51171875 C75.03811669 95.67449992 75.02053182 102.83723902 75 110 C68.07 110 61.14 110 54 110 C53.98598145 107.54796143 53.98598145 107.54796143 53.97167969 105.04638672 C53.93177102 98.97433343 53.8660083 92.9027863 53.79248047 86.83105469 C53.76427622 84.20449329 53.74305904 81.5778471 53.72900391 78.95117188 C53.707568 75.17273566 53.66091052 71.39531837 53.609375 67.6171875 C53.60814636 66.44509735 53.60691772 65.2730072 53.60565186 64.06539917 C53.49306676 57.78093108 53.31762454 53.72915743 49 49 C44.02914028 45.44938591 38.90483519 45.16714686 33 46 C27.67163156 47.78960382 24.64819864 51.11101789 22 56 C21.04221359 59.04591123 20.85096465 61.8597143 20.79467773 65.04394531 C20.77473251 66.04468079 20.75478729 67.04541626 20.73423767 68.07647705 C20.70916893 69.68604279 20.70916893 69.68604279 20.68359375 71.328125 C20.66281265 72.43226746 20.64203156 73.53640991 20.62062073 74.67401123 C20.55526354 78.19927783 20.49630436 81.72461859 20.4375 85.25 C20.39430164 87.64063265 20.35068693 90.03125782 20.30664062 92.421875 C20.19959624 98.2811741 20.09828962 104.14054776 20 110 C13.4 110 6.8 110 0 110 C0 73.7 0 37.4 0 0 Z " fill="#0E171A" transform="translate(620,672)"/>
<path d="M0 0 C7.26 0 14.52 0 22 0 C28.46826313 17.0526937 34.17992485 34.34073277 39.89599609 51.65625 C40.59447843 53.77177721 41.29549074 55.88647223 42 58 C42.22550537 57.26813477 42.45101074 56.53626953 42.68334961 55.78222656 C47.06211461 41.58571659 51.47694377 27.40127119 56 13.25 C56.38534912 12.03731445 56.77069824 10.82462891 57.16772461 9.57519531 C57.52487549 8.46241211 57.88202637 7.34962891 58.25 6.203125 C58.72179687 4.72827637 58.72179687 4.72827637 59.203125 3.22363281 C60 1 60 1 61 0 C62.63472882 -0.08700342 64.27314055 -0.10701063 65.91015625 -0.09765625 C66.89951172 -0.09443359 67.88886719 -0.09121094 68.90820312 -0.08789062 C69.94912109 -0.07951172 70.99003906 -0.07113281 72.0625 -0.0625 C73.62967773 -0.05573242 73.62967773 -0.05573242 75.22851562 -0.04882812 C77.81906936 -0.03699911 80.40949746 -0.01967834 83 0 C81.08149547 6.64544083 78.93290019 13.15318576 76.515625 19.6328125 C76.01662941 20.98178116 76.01662941 20.98178116 75.5075531 22.35800171 C74.42502423 25.28157915 73.33785104 28.20339911 72.25 31.125 C71.49314348 33.16207149 70.73639026 35.19918137 69.97973633 37.23632812 C68.42598661 41.41767669 66.86996302 45.59817171 65.31298828 49.77832031 C63.44256345 54.80366091 61.58458871 59.83347679 59.73208618 64.865448 C58.3773294 68.5421042 57.01613709 72.21635514 55.65344238 75.89007568 C55.01387296 77.61815783 54.37687255 79.34719313 53.74255371 81.07720947 C52.86037647 83.48132108 51.96849153 85.88161617 51.07421875 88.28125 C50.6939579 89.32821548 50.6939579 89.32821548 50.30601501 90.39633179 C47.02785388 99.11458677 41.41186347 106.9013639 33.125 111.4375 C25.80271526 114.40702276 14.46460762 114.40983396 7 112 C7.51241107 105.97099313 8.069785 99.97995357 9 94 C9.83724609 94.23783203 9.83724609 94.23783203 10.69140625 94.48046875 C16.0174083 95.67904451 21.21990896 96.03838644 26 93.25 C28.65824303 90.25947659 29.85950415 88.45470875 30.24682617 84.44433594 C29.91620229 79.83064479 28.4134569 76.04959168 26.73828125 71.765625 C26.39572296 70.86630753 26.05316467 69.96699005 25.70022583 69.04042053 C24.58021456 66.10665122 23.44639013 63.17842972 22.3125 60.25 C21.53884253 58.22977527 20.76614426 56.20918297 19.99438477 54.18823242 C18.04644748 49.09384412 16.08756553 44.00375505 14.12438965 38.91522217 C11.50386924 32.12095899 8.89457191 25.32238917 6.28720093 18.52307129 C5.44874861 16.34176425 4.60529621 14.16244386 3.76098633 11.98339844 C3.25593208 10.67256074 2.7509625 9.36169041 2.24609375 8.05078125 C1.80966553 6.92325439 1.3732373 5.79572754 0.92358398 4.6340332 C0 2 0 2 0 0 Z " fill="#0E171A" transform="translate(278,701)"/>
<path d="M0 0 C0.9075 -0.01611328 1.815 -0.03222656 2.75 -0.04882812 C8.97168678 -0.05331061 15.20213873 0.36984796 20.14941406 4.62304688 C26.61303593 11.81108045 25.96733941 20.31246327 25.94067383 29.36987305 C25.93752335 31.60841015 25.96097319 33.84561112 25.98632812 36.08398438 C26.06361725 52.88792851 26.06361725 52.88792851 20.9765625 59.43359375 C20.40679688 59.86800781 19.83703125 60.30242187 19.25 60.75 C18.68539062 61.20246094 18.12078125 61.65492188 17.5390625 62.12109375 C12.04002766 65.54396237 7.13884745 65.6781897 0.8125 65.6875 C-0.05181641 65.71199219 -0.91613281 65.73648438 -1.80664062 65.76171875 C-8.46225919 65.7918574 -13.81501863 64.44193491 -18.90112305 59.97094727 C-24.01227067 54.39725235 -24.6872487 47.73670283 -24.7109375 40.47265625 C-24.7175943 39.74686874 -24.7242511 39.02108124 -24.73110962 38.27330017 C-24.74117165 36.74806224 -24.74592865 35.22278085 -24.74560547 33.69750977 C-24.74998263 31.38418126 -24.78637738 29.07275815 -24.82421875 26.75976562 C-24.89311167 17.66418051 -24.32891049 11.32078662 -18.5 3.9375 C-12.96083883 -0.29832913 -6.65575013 -0.02343574 0 0 Z " fill="#FAFCFD" transform="translate(547.375,347.6875)"/>
<path d="M0 0 C1.22589844 -0.0309375 1.22589844 -0.0309375 2.4765625 -0.0625 C9.72614508 -0.10838343 16.2720477 0.87339137 21.75 5.875 C27.12795656 14.41646041 27.36842825 22.70027695 27.3125 32.625 C27.3424707 34.50058594 27.3424707 34.50058594 27.37304688 36.4140625 C27.36846118 45.18191405 26.78181445 54.24551519 20.375 60.8125 C19.55 61.286875 18.725 61.76125 17.875 62.25 C17.27993652 62.60344482 16.68487305 62.95688965 16.07177734 63.32104492 C11.54252615 65.2363373 6.34380541 64.57629216 1.5 64.5625 C0.3759375 64.57861328 -0.748125 64.59472656 -1.90625 64.61132812 C-8.99526514 64.61551785 -14.0144817 64.27164634 -19.3125 59.125 C-24.48901315 50.91397914 -24.56254774 42.68612637 -24.4375 33.1875 C-24.44072266 31.95966797 -24.44394531 30.73183594 -24.44726562 29.46679688 C-24.39348413 20.38750332 -24.10553064 12.55953744 -18.125 5.25 C-11.9322416 0.57383549 -7.45910622 0.04576139 0 0 Z " fill="#F9FCFD" transform="translate(482.125,429.75)"/>
<path d="M0 0 C0.87333984 -0.020625 1.74667969 -0.04125 2.64648438 -0.0625 C9.86307061 -0.10561627 15.70843925 0.76167529 21.125 5.9375 C26.50217188 14.08007456 26.75578583 21.08286571 26.625 30.625 C26.62822266 31.79289062 26.63144531 32.96078125 26.63476562 34.1640625 C26.51925697 52.89746677 26.51925697 52.89746677 21.1875 58.75 C20.64867187 59.3790625 20.10984375 60.008125 19.5546875 60.65625 C13.52936116 64.93906036 5.78898486 64.61491266 -1.3125 64.625 C-2.68535156 64.66173828 -2.68535156 64.66173828 -4.0859375 64.69921875 C-11.47808712 64.73126564 -15.11008282 62.76883952 -20.4375 57.5625 C-25.88721473 50.53774829 -24.99514715 40.59917994 -24.9375 32.1875 C-24.94523437 31.05505859 -24.95296875 29.92261719 -24.9609375 28.75585938 C-24.94035022 19.91876821 -24.50512847 12.36043479 -18.6875 5.25 C-12.32043532 0.44221646 -7.67433002 0.04432826 0 0 Z " fill="#F9FCFD" transform="translate(482.6875,264.75)"/>
<path d="M0 0 C5.36021007 4.78997496 7.60447341 10.91389828 8.2878418 17.97363281 C8.40241032 21.25843632 8.40933397 24.52597652 8.375 27.8125 C8.38660156 28.91142578 8.39820313 30.01035156 8.41015625 31.14257812 C8.37998911 39.67485022 7.98130246 49.05178863 2.6875 56.0625 C-3.92135547 60.82702371 -8.91870874 61.47085893 -16.875 61.375 C-18.30779297 61.39240234 -18.30779297 61.39240234 -19.76953125 61.41015625 C-26.79305385 61.38125286 -33.17398722 60.82601278 -38.375 55.625 C-43.41850019 47.47780738 -43.18205617 38.99101184 -43.1875 29.6875 C-43.19974609 28.59759766 -43.21199219 27.50769531 -43.22460938 26.38476562 C-43.24078567 17.41770483 -42.97469664 9.13644321 -37 2 C-27.6402144 -5.21483474 -10.51290784 -5.56193922 0 0 Z " fill="#F7FBFD" transform="translate(632,268)"/>
<path d="M0 0 C1.1240625 -0.01611328 2.248125 -0.03222656 3.40625 -0.04882812 C13.76886268 -0.0549526 13.76886268 -0.0549526 18.625 3.3125 C25.70907034 10.39657034 25.89257731 17.17759149 25.94726562 26.74804688 C25.94404297 28.02744141 25.94082031 29.30683594 25.9375 30.625 C25.95361328 31.89279297 25.96972656 33.16058594 25.98632812 34.46679688 C25.99074326 42.99242909 25.56960953 51.51360771 20.5625 58.75 C13.44787691 64.95637334 4.39266729 64.90804981 -4.65625 64.58984375 C-10.88933282 64.12498148 -15.1867375 62.85685342 -19.6875 58.3125 C-25.54753229 50.49699114 -25.85841277 40.66384251 -25.75 31.25 C-25.76160156 30.23873047 -25.77320313 29.22746094 -25.78515625 28.18554688 C-25.74896248 18.81739267 -24.37776163 10.7928969 -17.97265625 3.6875 C-12.66484105 -0.88059523 -6.64554213 -0.01892239 0 0 Z " fill="#F8FBFD" transform="translate(413.375,430.6875)"/>
<path d="M0 0 C1.08087891 -0.020625 2.16175781 -0.04125 3.27539062 -0.0625 C10.26415906 -0.09682176 15.1513869 0.30063298 20.375 5.375 C25.61074476 13.67997445 25.65076555 22.08126637 25.5625 31.6875 C25.57410156 32.94626953 25.58570313 34.20503906 25.59765625 35.50195312 C25.54435304 52.53232915 25.54435304 52.53232915 20.41357422 58.21459961 C14.07145286 63.88060893 8.86549919 63.5258328 0.5625 63.625 C-1.18353516 63.68107422 -1.18353516 63.68107422 -2.96484375 63.73828125 C-10.23701011 63.81240299 -15.24793136 63.14964355 -20.8125 58.25 C-28.25156976 49.81905428 -26.3283698 33.76545313 -25.8125 23.25 C-25.0915318 14.76059947 -23.78070836 8.83106609 -17.25 2.9375 C-11.94616912 -0.73438292 -6.21114056 0.02931512 0 0 Z " fill="#F8FBFD" transform="translate(413.8125,265.75)"/>
<path d="M0 0 C0.99837891 -0.01998047 1.99675781 -0.03996094 3.02539062 -0.06054688 C9.29111027 -0.0564274 14.42709989 0.62076686 19.5625 4.4375 C25.31439739 12.15715175 25.93398491 21.24986862 25.875 30.625 C25.86871582 31.99495117 25.86871582 31.99495117 25.86230469 33.39257812 C25.52948961 53.51726871 25.52948961 53.51726871 18.5625 60.4375 C12.43867712 64.09422866 6.49713683 63.88915762 -0.5 63.8125 C-1.56283203 63.82410156 -2.62566406 63.83570313 -3.72070312 63.84765625 C-11.05359369 63.82017509 -15.66802093 63.01815095 -21.1875 57.875 C-26.59071062 50.81877689 -25.74875296 40.35978171 -25.6875 31.9375 C-25.69523438 30.87402344 -25.70296875 29.81054688 -25.7109375 28.71484375 C-25.66967948 11.90220173 -25.66967948 11.90220173 -21.25 6 C-14.7623692 0.08904749 -8.42339188 -0.05958669 0 0 Z " fill="#F9FBFD" transform="translate(614.4375,430.5625)"/>
<path d="M0 0 C0.92103516 -0.020625 1.84207031 -0.04125 2.79101562 -0.0625 C10.17756822 -0.10443926 16.03330877 0.71247758 21.6875 5.875 C26.63453036 13.73204821 26.12205878 22.72684465 26.0625 31.75 C26.07410156 33.50763672 26.07410156 33.50763672 26.0859375 35.30078125 C26.06559158 44.36488735 25.9631197 53.07427701 19.8125 60.25 C11.10976384 65.61977337 -1.00379666 65.5627055 -10.90234375 63.75390625 C-16.65538389 61.79941852 -20.09896956 58.4032859 -22.79711914 53.06591797 C-24.3758172 49.23224959 -24.63886448 45.55769793 -24.62109375 41.4453125 C-24.62895653 40.36018875 -24.62895653 40.36018875 -24.63697815 39.25314331 C-24.64336242 37.73208898 -24.64210827 36.21098503 -24.63354492 34.68994141 C-24.62504589 32.38743288 -24.65382374 30.08741982 -24.68554688 27.78515625 C-24.76022982 12.53496104 -24.76022982 12.53496104 -20.1875 6.25 C-13.9097893 0.35013947 -8.1507486 0.04469225 0 0 Z " fill="#F9FCFD" transform="translate(416.1875,348.75)"/>
<path d="M0 0 C6.93 0 13.86 0 21 0 C21 6.6 21 13.2 21 20 C26.61 20 32.22 20 38 20 C38 25.28 38 30.56 38 36 C32.39 36 26.78 36 21 36 C21.06876071 42.49655776 21.15667102 48.99246473 21.26245117 55.48852539 C21.29573508 57.69906406 21.32375612 59.90968843 21.34643555 62.12036133 C21.37991759 65.29545666 21.43223052 68.46976417 21.48828125 71.64453125 C21.49467117 72.63524124 21.5010611 73.62595123 21.50764465 74.64668274 C21.53733589 76.02777473 21.53733589 76.02777473 21.56762695 77.43676758 C21.58428154 78.65255241 21.58428154 78.65255241 21.60127258 79.89289856 C22.09760654 82.51580823 22.87677058 83.41835702 25 85 C27.97192762 85.36319309 27.97192762 85.36319309 31.1875 85.1875 C32.81751953 85.14689453 32.81751953 85.14689453 34.48046875 85.10546875 C35.31191406 85.07066406 36.14335937 85.03585937 37 85 C37.8320582 90.72040011 38.12036664 96.22240116 38 102 C29.89619426 105.75980636 20.36100648 104.80799095 12.0859375 101.90234375 C5.85553635 99.20717022 3.51624734 95.0069238 1 89 C0.01533747 86.04601242 -0.12127836 84.14750978 -0.11352539 81.06958008 C-0.11344986 80.06876907 -0.11337433 79.06795807 -0.11329651 78.03681946 C-0.10813522 76.95861435 -0.10297394 75.88040924 -0.09765625 74.76953125 C-0.0962413 73.66397385 -0.09482635 72.55841644 -0.09336853 71.4193573 C-0.08776514 67.88371083 -0.07521204 64.34812738 -0.0625 60.8125 C-0.05748544 58.41731862 -0.05292246 56.02213625 -0.04882812 53.62695312 C-0.0377946 47.75127775 -0.02052767 41.87564957 0 36 C-4.29 36 -8.58 36 -13 36 C-13 31.05 -13 26.1 -13 21 C-8.71 21 -4.42 21 0 21 C0 14.07 0 7.14 0 0 Z " fill="#10191C" transform="translate(377,680)"/>
<path d="M0 0 C6.6 0 13.2 0 20 0 C20 6.93 20 13.86 20 21 C25.61 21 31.22 21 37 21 C37 25.95 37 30.9 37 36 C31.39 36 25.78 36 20 36 C20.06883475 42.3358391 20.15678189 48.67101561 20.26245117 55.00634766 C20.2957054 57.16154636 20.32373577 59.31683226 20.34643555 61.47216797 C20.379972 64.57036497 20.43228803 67.66776255 20.48828125 70.765625 C20.49467117 71.72929993 20.5010611 72.69297485 20.50764465 73.68585205 C20.53733589 75.03679962 20.53733589 75.03679962 20.56762695 76.41503906 C20.58428154 77.60084564 20.58428154 77.60084564 20.60127258 78.81060791 C21.1058693 81.58132295 22.05879238 82.97873472 24 85 C27.19802776 85.48466366 27.19802776 85.48466366 30.6875 85.25 C32.770625 85.1675 34.85375 85.085 37 85 C37 90.61 37 96.22 37 102 C27.31137964 104.42215509 19.18513499 105.51588269 10 101 C4.31818381 97.45851846 1.69075817 93.52289493 0 87 C-0.38899815 83.01453428 -0.35063953 79.06370832 -0.29296875 75.0625 C-0.28872391 73.94182129 -0.28447906 72.82114258 -0.28010559 71.66650391 C-0.26340311 68.11075126 -0.22576568 64.55557941 -0.1875 61 C-0.17244231 58.57943531 -0.1587558 56.15886167 -0.14648438 53.73828125 C-0.11352706 47.82529935 -0.06180241 41.91274792 0 36 C-4.29 36 -8.58 36 -13 36 C-13 31.05 -13 26.1 -13 21 C-9.04 20.67 -5.08 20.34 -1 20 C-0.67 13.4 -0.34 6.8 0 0 Z " fill="#0E171A" transform="translate(799,680)"/>
<path d="M0 0 C4.640625 -0.061875 9.28125 -0.12375 14.0625 -0.1875 C16.23791382 -0.22846802 16.23791382 -0.22846802 18.45727539 -0.27026367 C30.48618656 -0.34795579 30.48618656 -0.34795579 36 3 C40.54694977 7.90591949 41.29928277 11.00677498 41.21484375 17.52734375 C40.81719838 22.10388042 38.83815409 24.2263193 35.5625 27.25 C31.20356929 30.22683073 27.48369402 30.12054252 22.265625 30.09765625 C20.51427246 30.09390991 20.51427246 30.09390991 18.72753906 30.09008789 C17.24995117 30.08098389 15.77236328 30.07187988 14.25 30.0625 C9.5475 30.041875 4.845 30.02125 0 30 C0 20.1 0 10.2 0 0 Z " fill="#FCFCFD" transform="translate(210,734)"/>
<path d="M0 0 C0 21.12 0 42.24 0 64 C-4.95 64 -9.9 64 -15 64 C-15.33 49.15 -15.66 34.3 -16 19 C-20.95 19.495 -20.95 19.495 -26 20 C-26.75760775 15.79106804 -26.97012815 12.18686884 -26 8 C-18.44547106 -0.93546433 -11.83570641 0 0 0 Z " fill="#F8FBFD" transform="translate(624,348)"/>
<path d="M0 0 C0 21.12 0 42.24 0 64 C-4.62 64 -9.24 64 -14 64 C-14 48.82 -14 33.64 -14 18 C-17.63 18.66 -21.26 19.32 -25 20 C-26.03212249 12.43110177 -26.03212249 12.43110177 -25 8 C-17.6294093 -0.57952357 -11.42181328 0 0 0 Z " fill="#FBFCFD" transform="translate(491,348)"/>
<path d="M0 0 C0 20.79 0 41.58 0 63 C-4.62 63 -9.24 63 -14 63 C-14 48.48 -14 33.96 -14 19 C-17.63 19.66 -21.26 20.32 -25 21 C-25.54892598 16.87288987 -25.76418561 13.10813873 -25 9 C-18.17378685 0.62822915 -10.55674917 0 0 0 Z " fill="#FCFDFD" transform="translate(557,431)"/>
<path d="M0 0 C0 20.79 0 41.58 0 63 C-4.62 63 -9.24 63 -14 63 C-14 48.15 -14 33.3 -14 18 C-16.31 18.66 -18.62 19.32 -21 20 C-22.32 20 -23.64 20 -25 20 C-25.61379171 15.84667608 -25.86468463 12.12783973 -25 8 C-17.43321003 -0.14252399 -11.11640981 0 0 0 Z " fill="#FCFDFD" transform="translate(557,266)"/>
<path d="M0 0 C6.249375 -0.0928125 6.249375 -0.0928125 12.625 -0.1875 C13.92775879 -0.21481201 15.23051758 -0.24212402 16.57275391 -0.27026367 C27.31180586 -0.34757687 27.31180586 -0.34757687 32 3 C36.25407211 7.71397179 37.30441245 10.53990343 37.21484375 16.75 C36.79144859 21.18410209 34.71008826 23.36092056 31.5 26.25 C27.59196053 28.98562763 24.67407028 29.12036132 20.01953125 29.09765625 C18.97128174 29.09515869 17.92303223 29.09266113 16.84301758 29.09008789 C15.51294678 29.08098389 14.18287598 29.07187988 12.8125 29.0625 C8.584375 29.041875 4.35625 29.02125 0 29 C0 19.43 0 9.86 0 0 Z " fill="#F7F8F8" transform="translate(210,689)"/>
<path d="M0 0 C2.8496171 1.83189671 3.6902839 2.86858811 4.57421875 6.09765625 C5.9518371 15.48821072 6.29475495 27.0570937 3 36 C0.23109294 38.68746862 -2.25912292 39.2106114 -6 39.5 C-9.41506211 39.37088612 -10.03577569 38.97259734 -12.9375 36.75 C-16.76724921 31.64366772 -16.18303537 26.34422552 -16.1875 20.1875 C-16.19974609 19.31029297 -16.21199219 18.43308594 -16.22460938 17.52929688 C-16.2378469 11.62977492 -16.11628772 6.14548539 -12.71484375 1.08984375 C-8.98698661 -1.27934108 -4.2172273 -0.56904117 0 0 Z " fill="#0574E2" transform="translate(489,278)"/>
<path d="M0 0 C3 1.5625 3 1.5625 5 4 C6.05794372 9.33014955 6.1829605 14.58891679 6.1875 20 C6.19974609 20.76828125 6.21199219 21.5365625 6.22460938 22.328125 C6.23869117 27.84818914 6.04170062 33.46829123 2.4375 37.9375 C-1.37144442 39.59780911 -4.92508825 39.78447499 -9 39 C-12.56988333 36.32258751 -14.22010313 34.33413237 -15 30 C-15.22102715 26.3569525 -15.18513199 22.71160458 -15.1875 19.0625 C-15.19974609 18.07314453 -15.21199219 17.08378906 -15.22460938 16.06445312 C-15.22654297 15.10603516 -15.22847656 14.14761719 -15.23046875 13.16015625 C-15.23457764 12.29011963 -15.23868652 11.42008301 -15.24291992 10.52368164 C-14.88849588 6.84158983 -13.85733568 3.99450939 -11.4375 1.1875 C-7.65545547 -0.65503452 -4.12205876 -0.64659745 0 0 Z " fill="#0574E1" transform="translate(488,443)"/>
<path d="M0 0 C1.40765625 0.04640625 1.40765625 0.04640625 2.84375 0.09375 C3.7821875 0.1040625 4.720625 0.114375 5.6875 0.125 C8.72547677 0.66111355 10.1347038 1.46503275 12.34375 3.59375 C14.04606183 8.70068548 13.57054329 14.0600038 13.59375 19.40625 C13.614375 20.58251953 13.635 21.75878906 13.65625 22.97070312 C13.70654278 34.09169332 13.70654278 34.09169332 10.34375 38.59375 C6.3054407 39.9398531 2.56641539 40.16644422 -1.65625 39.59375 C-4.15785818 37.71754387 -5.27570652 36.35483697 -6.65625 33.59375 C-6.9557071 28.99532809 -6.93438638 24.38826583 -6.96875 19.78125 C-6.99775391 18.49669922 -7.02675781 17.21214844 -7.05664062 15.88867188 C-7.06501953 14.65052734 -7.07339844 13.41238281 -7.08203125 12.13671875 C-7.09661377 11.00258545 -7.11119629 9.86845215 -7.1262207 8.69995117 C-6.440515 4.16788173 -4.61481665 1.03154725 0 0 Z " fill="#0270E1" transform="translate(544.65625,360.40625)"/>
<path d="M0 0 C4.56944444 2.13888889 4.56944444 2.13888889 6 5 C6.28042286 9.08529957 6.31359145 13.17223534 6.35009766 17.26635742 C6.36663597 18.62525586 6.39389921 19.98406805 6.43212891 21.3425293 C6.48709607 23.30724686 6.50566889 25.27287525 6.5234375 27.23828125 C6.54325684 28.41430908 6.56307617 29.59033691 6.58349609 30.80200195 C5.82891902 34.93765261 4.22648422 36.39901272 1 39 C-2.41050201 39.84605674 -5.55288268 39.63468883 -9 39 C-12.34441009 36.71601262 -13.25224868 34.86395744 -14 31 C-14.24712316 27.211527 -14.23111575 23.42073328 -14.25 19.625 C-14.270625 18.59632813 -14.29125 17.56765625 -14.3125 16.5078125 C-14.341115 10.9565017 -14.28914735 6.71854317 -11 2 C-7.29702456 -0.46865029 -4.29548969 -0.56100937 0 0 Z " fill="#0272E1" transform="translate(618,443)"/>
<path d="M0 0 C2.94420302 1.69135067 4.61403217 2.72972611 5.6171875 6.03125 C6.1671501 10.29626607 6.18433873 14.5163353 6.1875 18.8125 C6.20586914 20.10897461 6.20586914 20.10897461 6.22460938 21.43164062 C6.23711694 26.95581417 5.77101465 31.74579376 4 37 C0.84905867 39.10062755 -0.2224366 39.34313286 -3.875 39.4375 C-4.71804688 39.47746094 -5.56109375 39.51742187 -6.4296875 39.55859375 C-10.18401765 38.7426831 -11.58297527 36.932511 -14 34 C-14.61523438 30.83374023 -14.61523438 30.83374023 -14.59375 27.30859375 C-14.59117187 26.03435547 -14.58859375 24.76011719 -14.5859375 23.44726562 C-14.57143555 22.78895752 -14.55693359 22.13064941 -14.54199219 21.45239258 C-14.50003699 19.43927506 -14.50093468 17.42949789 -14.5078125 15.41601562 C-14.39610198 4.38460163 -14.39610198 4.38460163 -11 1 C-7.2819518 -0.2393494 -3.86305995 -0.54218385 0 0 Z " fill="#0472E1" transform="translate(418,443)"/>
<path d="M0 0 C3.1523885 2.61197904 4.03062137 5.34578942 4.4621582 9.38037109 C4.49050745 12.31650521 4.50924525 15.2512098 4.5 18.1875 C4.51611328 19.20328125 4.53222656 20.2190625 4.54882812 21.265625 C4.55270539 27.23660765 4.05468762 31.54268175 1.1875 36.8125 C-0.61521782 38.61521782 -3.25658749 38.02752284 -5.6875 38.0625 C-7.29238281 38.10117187 -7.29238281 38.10117187 -8.9296875 38.140625 C-11.8125 37.8125 -11.8125 37.8125 -13.6328125 36.484375 C-17.14907813 31.50105815 -15.99685917 24.74804461 -16 18.9375 C-16.01224609 17.75285156 -16.02449219 16.56820313 -16.03710938 15.34765625 C-16.03904297 14.20425781 -16.04097656 13.06085938 -16.04296875 11.8828125 C-16.04707764 10.83883301 -16.05118652 9.79485352 -16.05541992 8.71923828 C-15.80191896 5.68588907 -15.15931148 3.53143784 -13.8125 0.8125 C-9.73203484 -2.36119513 -4.56524918 -1.92754966 0 0 Z " fill="#0472E1" transform="translate(422.8125,362.1875)"/>
<path d="M0 0 C2.96146283 3.67939322 2.97662467 7.01724167 3.0625 11.5625 C3.10117187 12.83738281 3.13984375 14.11226563 3.1796875 15.42578125 C3.47419666 29.21592985 3.47419666 29.21592985 1.0625 35.5625 C-2.22310151 37.752901 -3.5238715 37.911168 -7.375 38 C-8.79619141 38.05994141 -8.79619141 38.05994141 -10.24609375 38.12109375 C-12.9375 37.5625 -12.9375 37.5625 -15.07470703 35.44580078 C-17.32356551 31.96493334 -17.44015044 29.98727191 -17.43359375 25.87109375 C-17.43423828 24.59685547 -17.43488281 23.32261719 -17.43554688 22.00976562 C-17.42515381 21.35145752 -17.41476074 20.69314941 -17.40405273 20.01489258 C-17.37502785 18.0019315 -17.38346823 15.99159731 -17.39648438 13.97851562 C-17.3237787 2.93284561 -17.3237787 2.93284561 -13.9375 -0.4375 C-8.91717031 -2.11094323 -4.71923355 -2.30941216 0 0 Z " fill="#0371E1" transform="translate(420.9375,279.4375)"/>
<path d="M0 0 C2.89879482 2.22051691 3.89923967 3.39009356 4.50170898 7.03686523 C4.49985596 8.19903564 4.49800293 9.36120605 4.49609375 10.55859375 C4.49673828 11.83154297 4.49738281 13.10449219 4.49804688 14.41601562 C4.48765381 15.07641846 4.47726074 15.73682129 4.46655273 16.41723633 C4.43763534 18.42808884 4.44594051 20.43629517 4.45898438 22.44726562 C4.38546466 33.62791705 4.38546466 33.62791705 1 38 C-2.7169732 39.23899107 -6.14438861 39.68393886 -10 39 C-13.21954645 36.46546343 -14.70432435 34.88702695 -16 31 C-16.09220107 29.52826224 -16.1306736 28.05274648 -16.1328125 26.578125 C-16.13410156 25.71703125 -16.13539063 24.8559375 -16.13671875 23.96875 C-16.13285156 23.0715625 -16.12898437 22.174375 -16.125 21.25 C-16.12886719 20.36828125 -16.13273438 19.4865625 -16.13671875 18.578125 C-16.11711649 5.40540461 -16.11711649 5.40540461 -13.0625 1.5625 C-8.81867224 -0.60271824 -4.6735866 -1.03350858 0 0 Z " fill="#0272E1" transform="translate(620,278)"/>
<path d="M0 0 C0.0816082 2.37570543 0.14077222 4.74855841 0.1875 7.125 C0.21263672 7.79015625 0.23777344 8.4553125 0.26367188 9.140625 C0.34358557 14.57475628 -0.7714342 18.55154904 -4.46484375 22.609375 C-9.68658055 26.65379714 -13.0893565 28.47936104 -19.68359375 28.31640625 C-24.52245044 27.65544943 -27.80135367 25.38593482 -31 21.6875 C-32.36987339 18.00596526 -32.01108319 15.77471057 -31 12 C-28.28324969 7.40242256 -24.91199121 5.67438121 -20 4 C-17.08260267 3.3097767 -14.15009703 2.82722643 -11.1875 2.375 C-7.62630833 1.80906252 -3.36006542 0 0 0 Z " fill="#FAFAFA" transform="translate(758,742)"/>
<path d="M0 0 C4.86066858 3.58763633 8.11892662 6.84573002 9.5625 12.8125 C9.583125 13.84375 9.60375 14.875 9.625 15.9375 C8.625 16.9375 8.625 16.9375 5.11499023 17.05102539 C3.55451578 17.05086626 1.99403607 17.04517142 0.43359375 17.03515625 C-0.38624496 17.0337413 -1.20608368 17.03232635 -2.05076599 17.03086853 C-4.67971382 17.02525289 -7.30857773 17.01269779 -9.9375 17 C-11.71549357 16.99498701 -13.49348846 16.99042376 -15.27148438 16.98632812 C-19.63935545 16.97527839 -24.00716348 16.95800331 -28.375 16.9375 C-27.91814062 15.33049196 -27.45461466 13.72537817 -26.98828125 12.12109375 C-26.73087158 11.22704834 -26.47346191 10.33300293 -26.20825195 9.41186523 C-24.7438391 5.06324986 -22.52979499 2.77472637 -18.875 0.125 C-12.67196125 -1.97960243 -6.24588196 -1.96629617 0 0 Z " fill="#FBFBFB" transform="translate(470.375,716.0625)"/>
<path d="M0 0 C0.66 0.33 1.32 0.66 2 1 C2.33 20.47 2.66 39.94 3 60 C-3.27 60 -9.54 60 -16 60 C-15.67 59.34 -15.34 58.68 -15 58 C-9.72 58.33 -4.44 58.66 1 59 C0.855625 57.081875 0.71125 55.16375 0.5625 53.1875 C0.48128906 52.10855469 0.40007813 51.02960937 0.31640625 49.91796875 C0.09787539 46.94010095 0.09787539 46.94010095 -1 44 C-1.09088333 42.5782579 -1.12789172 41.1526705 -1.12939453 39.72802734 C-1.13412277 38.44187027 -1.13412277 38.44187027 -1.13894653 37.12973022 C-1.1369223 36.20777863 -1.13489807 35.28582703 -1.1328125 34.3359375 C-1.13424759 32.91421738 -1.13424759 32.91421738 -1.13571167 31.46377563 C-1.13639203 29.46152683 -1.13454779 27.45927581 -1.13037109 25.45703125 C-1.12500899 22.38015844 -1.13032705 19.30343083 -1.13671875 16.2265625 C-1.13605818 14.28385384 -1.13477744 12.34114528 -1.1328125 10.3984375 C-1.13483673 9.47243744 -1.13686096 8.54643738 -1.13894653 7.59237671 C-1.13579437 6.74124298 -1.13264221 5.89010925 -1.12939453 5.01318359 C-1.12859894 4.26056244 -1.12780334 3.50794128 -1.12698364 2.73251343 C-1 1 -1 1 0 0 Z " fill="#191D1F" transform="translate(777,722)"/>
<path d="M0 0 C0.33 0 0.66 0 1 0 C2.2773034 5.90752824 2 10.60354376 2 17 C-16.48 17 -34.96 17 -54 17 C-54 16.34 -54 15.68 -54 15 C-36.18 15 -18.36 15 0 15 C0 10.05 0 5.1 0 0 Z " fill="#010305" transform="translate(498,730)"/>
<path d="M0 0 C0 14.85 0 29.7 0 45 C4.95 45 9.9 45 15 45 C15 45.33 15 45.66 15 46 C12.35409986 46.02684679 9.70846904 46.04676357 7.0625 46.0625 C6.30775391 46.07087891 5.55300781 46.07925781 4.77539062 46.08789062 C2.85005687 46.09652441 0.92464419 46.05224333 -1 46 C-2 45 -2 45 -2.12025452 43.20933533 C-2.11803391 42.42990067 -2.11581329 41.650466 -2.11352539 40.84741211 C-2.11341209 39.52615578 -2.11341209 39.52615578 -2.11329651 38.1782074 C-2.10555458 36.74227989 -2.10555458 36.74227989 -2.09765625 35.27734375 C-2.0962413 34.30213272 -2.09482635 33.32692169 -2.09336853 32.32215881 C-2.08775133 29.19390857 -2.07519593 26.06572877 -2.0625 22.9375 C-2.05748722 20.82226666 -2.05292393 18.70703219 -2.04882812 16.59179688 C-2.03777631 11.39450704 -2.02102146 6.19725855 -2 1 C-4.31 1.33 -6.62 1.66 -9 2 C-5.76698667 -1.23301333 -4.45068633 -1.11267158 0 0 Z " fill="#005ADD" transform="translate(609,367)"/>
<path d="M0 0 C0.33 0 0.66 0 1 0 C1 6.27 1 12.54 1 19 C6.61 19 12.22 19 18 19 C18 24.28 18 29.56 18 35 C12.06 35 6.12 35 0 35 C0 34.67 0 34.34 0 34 C5.28 34 10.56 34 16 34 C16 29.71 16 25.42 16 21 C10.72 21 5.44 21 0 21 C0 14.07 0 7.14 0 0 Z " fill="#2F3334" transform="translate(397,681)"/>
<path d="M0 0 C1.14404297 0.0103125 2.28808594 0.020625 3.46679688 0.03125 C11.87791968 0.19041968 11.87791968 0.19041968 14.1875 2.5 C13.49712646 2.51458252 12.80675293 2.52916504 12.09545898 2.54418945 C8.9381034 2.61910617 5.78175499 2.71562217 2.625 2.8125 C1.53896484 2.83505859 0.45292969 2.85761719 -0.66601562 2.88085938 C-8.46260071 3.14153547 -13.82018071 3.76234618 -19.75 9.1875 C-20.430625 9.950625 -21.11125 10.71375 -21.8125 11.5 C-20.66256325 7.15579448 -18.49742284 4.57871544 -15.1237793 1.77001953 C-10.4335396 -0.80720946 -5.20876338 -0.19103774 0 0 Z " fill="#0763DE" transform="translate(612.8125,428.5)"/>
<path d="M0 0 C1.1446875 1.175625 1.1446875 1.175625 2.3125 2.375 C5.73932803 5.87582475 5.73932803 5.87582475 10.26171875 7.1953125 C11.06222656 7.17210937 11.86273438 7.14890625 12.6875 7.125 C13.49574219 7.10695313 14.30398438 7.08890625 15.13671875 7.0703125 C15.75160156 7.04710937 16.36648438 7.02390625 17 7 C17.66 5.68 18.32 4.36 19 3 C20.65 3.66 22.3 4.32 24 5 C20.63534895 8.59669595 18.70241703 9.8715157 13.6875 10.25 C8.3146631 9.88573987 5.27897502 8.37994673 1.625 4.4375 C0 2 0 2 0 0 Z " fill="#0666DE" transform="translate(366,600)"/>
<path d="M0 0 C0.99 0.66 1.98 1.32 3 2 C1.07063642 3.842617 -0.86755967 5.67395452 -2.8125 7.5 C-3.63331055 8.28697266 -3.63331055 8.28697266 -4.47070312 9.08984375 C-8.66015625 13 -8.66015625 13 -12 13 C-13.65503095 14.0772721 -13.65503095 14.0772721 -15.1875 15.5 C-16.5796875 16.7375 -16.5796875 16.7375 -18 18 C-16.41092475 13.85074796 -13.36467701 11.31591806 -10.125 8.4375 C-9.59519531 7.95603516 -9.06539063 7.47457031 -8.51953125 6.97851562 C-5.77768026 4.50540685 -3.00076351 2.15272165 0 0 Z " fill="#0767DE" transform="translate(354,239)"/>
<path d="M0 0 C0.33 0 0.66 0 1 0 C1 6.93 1 13.86 1 21 C1.66 21 2.32 21 3 21 C2.979375 21.7425 2.95875 22.485 2.9375 23.25 C2.99328688 25.70462279 3.3069904 27.66109261 4 30 C3.01 30 2.02 30 1 30 C-0.82728982 23.50659511 -1.19282925 17.20286377 -1.1875 10.5 C-1.1884668 9.29754639 -1.1884668 9.29754639 -1.18945312 8.07080078 C-1.13502075 2.2700415 -1.13502075 2.2700415 0 0 Z " fill="#232527" transform="translate(510,715)"/>
<path d="M0 0 C6.93 0 13.86 0 21 0 C20.34 1.32 19.68 2.64 19 4 C19 3.34 19 2.68 19 2 C13.06 2.33 7.12 2.66 1 3 C0.01 4.98 -0.98 6.96 -2 9 C-2.33 8.01 -2.66 7.02 -3 6 C-2.01 4.02 -1.02 2.04 0 0 Z " fill="#030507" transform="translate(588,745)"/>
<path d="M0 0 C-5.17675169 2.87597316 -9.95585694 3.12165801 -15.8125 3.0625 C-16.97394531 3.05347656 -18.13539063 3.04445313 -19.33203125 3.03515625 C-20.21246094 3.02355469 -21.09289062 3.01195312 -22 3 C-22 2.01 -22 1.02 -22 0 C-7.40318907 -1.33257403 -7.40318907 -1.33257403 0 0 Z " fill="#1A1F22" transform="translate(748,781)"/>
<path d="M0 0 C2.40672398 2.40672398 2.79132175 4.11378549 3.6875 7.375 C4.09548828 8.80972656 4.09548828 8.80972656 4.51171875 10.2734375 C4.9947433 12.97064661 4.9004538 14.44972144 4 17 C3.01 16.34 2.02 15.68 1 15 C0.93422592 13.05966458 0.88291667 11.11566282 0.9609375 9.17578125 C1.01735787 6.03316684 0.51598193 3.09589156 0 0 Z " fill="#0966DF" transform="translate(712,298)"/>
<path d="M0 0 C0.66 0.66 1.32 1.32 2 2 C1.67 3.32 1.34 4.64 1 6 C-5.27 6 -11.54 6 -18 6 C-18 5.67 -18 5.34 -18 5 C-12.39 5 -6.78 5 -1 5 C-0.67 3.35 -0.34 1.7 0 0 Z " fill="#1A2125" transform="translate(607,701)"/>
<path d="M0 0 C0 0.99 0 1.98 0 3 C-4.29 3 -8.58 3 -13 3 C-8.48332093 -0.01111938 -5.3360009 -0.10067926 0 0 Z " fill="#1F2527" transform="translate(410,781)"/>
<path d="M0 0 C0.66 0 1.32 0 2 0 C2.38909985 1.45463481 2.76088029 2.91391207 3.125 4.375 C3.33382813 5.18710937 3.54265625 5.99921875 3.7578125 6.8359375 C3.83773438 7.55007813 3.91765625 8.26421875 4 9 C3.34 9.66 2.68 10.32 2 11 C0 3.375 0 3.375 0 0 Z " fill="#1A1E20" transform="translate(314,746)"/>
<path d="M0 0 C-5.625 4 -5.625 4 -9 4 C-8 1 -8 1 -6.1875 -0.25 C-3.66056586 -1.11637742 -2.47778006 -0.88492145 0 0 Z " fill="#0A0E10" transform="translate(447,703)"/>
<path d="M0 0 C6.625 -0.25 6.625 -0.25 10 2 C7.04335481 3.4783226 4.25770263 3.06032783 1 3 C0.67 2.01 0.34 1.02 0 0 Z " fill="#1C2225" transform="translate(552,670)"/>
<path d="M0 0 C1 2 1 2 0.22265625 4.6015625 C-0.16019531 5.59929687 -0.54304688 6.59703125 -0.9375 7.625 C-1.50791016 9.12933594 -1.50791016 9.12933594 -2.08984375 10.6640625 C-2.39019531 11.43492187 -2.69054687 12.20578125 -3 13 C-3.33 13 -3.66 13 -4 13 C-4.63019694 4.80743982 -4.63019694 4.80743982 -2 1.4375 C-1.34 0.963125 -0.68 0.48875 0 0 Z " fill="#0657DB" transform="translate(392,271)"/>
<path d="M0 0 C-3.66291938 2.47785723 -6.6109185 3.48964169 -11 4 C-7.64918101 0.31409911 -4.96535219 -1.77334007 0 0 Z " fill="#095DDD" transform="translate(384,226)"/>
<path d="M0 0 C0.33 0 0.66 0 1 0 C0.979375 0.7425 0.95875 1.485 0.9375 2.25 C0.99328688 4.70462279 1.3069904 6.66109261 2 9 C1.01 9 0.02 9 -1 9 C-1.625 6.1875 -1.625 6.1875 -2 3 C-1.34 2.01 -0.68 1.02 0 0 Z " fill="#192022" transform="translate(512,736)"/>
<path d="M0 0 C1.5625 1.6875 1.5625 1.6875 3 4 C2.6875 6.75 2.6875 6.75 2 9 C0.59306362 6.37371875 -0.49157276 3.94887797 -1 1 C-0.67 0.67 -0.34 0.34 0 0 Z " fill="#191E20" transform="translate(494,717)"/>
<path d="M0 0 C2.6875 -0.3125 2.6875 -0.3125 5 0 C2.6875 2.5 2.6875 2.5 0 5 C-0.99 5 -1.98 5 -3 5 C-1.8125 2.5 -1.8125 2.5 0 0 Z " fill="#045FDD" transform="translate(409,586)"/>
<path d="M0 0 C-0.33 1.32 -0.66 2.64 -1 4 C-1.33 3.01 -1.66 2.02 -2 1 C-4.31 1.33 -6.62 1.66 -9 2 C-5.945634 -1.054366 -3.9532319 -1.22686507 0 0 Z " fill="#0455DC" transform="translate(609,367)"/>
<path d="M0 0 C0.66 1.32 1.32 2.64 2 4 C1.34 4 0.68 4 0 4 C0 2.68 0 1.36 0 0 Z M0 4 C0 4.99 0 5.98 0 7 C-1.32 7.33 -2.64 7.66 -4 8 C-4.33 7.01 -4.66 6.02 -5 5 C-2 4 -2 4 0 4 Z " fill="#222729" transform="translate(758,726)"/>
</svg>
