<?xml version="1.0" standalone="no"?>
<!DOCTYPE svg PUBLIC "-//W3C//DTD SVG 20010904//EN"
 "http://www.w3.org/TR/2001/REC-SVG-20010904/DTD/svg10.dtd">
<svg version="1.0" xmlns="http://www.w3.org/2000/svg"
 width="512.000000pt" height="512.000000pt" viewBox="0 0 512.000000 512.000000"
 preserveAspectRatio="xMidYMid meet">

<g transform="translate(0.000000,512.000000) scale(0.100000,-0.100000)"
fill="#000000" stroke="none">
<path d="M1197 5109 c-148 -35 -278 -170 -313 -326 -27 -123 -9 -218 66 -345
22 -36 40 -69 40 -71 0 -2 -36 -6 -79 -9 -294 -17 -478 -351 -342 -618 16 -30
72 -125 124 -210 l96 -155 -32 -3 c-133 -10 -221 -46 -304 -124 -119 -113
-165 -309 -107 -458 27 -70 1179 -1953 1262 -2062 269 -358 671 -615 1095
-700 157 -32 416 -32 564 0 199 43 340 104 530 228 289 190 465 383 571 627
88 199 119 376 109 607 -9 186 -194 2172 -208 2224 -18 66 -48 116 -105 176
-89 94 -199 136 -333 128 -149 -9 -279 -96 -347 -233 -30 -60 -37 -88 -44
-171 -5 -54 -9 -132 -10 -171 0 -40 -3 -73 -7 -73 -5 1 -213 335 -463 743
-484 790 -504 818 -611 871 -204 99 -452 19 -556 -180 -15 -30 -30 -54 -33
-54 -3 0 -32 46 -65 101 -89 149 -174 222 -300 255 -56 15 -141 17 -198 3z
m223 -185 c29 -16 63 -42 75 -59 13 -16 321 -518 685 -1115 364 -597 671
-1093 682 -1102 46 -41 128 -5 128 55 0 22 -145 267 -532 900 -292 478 -537
886 -544 906 -56 156 52 335 217 357 63 9 144 -17 196 -61 32 -27 168 -241
568 -893 290 -471 536 -865 548 -875 29 -26 85 -19 108 13 16 21 21 66 34 315
14 245 19 297 36 335 90 204 377 214 474 17 24 -51 29 -96 122 -1078 110
-1178 118 -1328 74 -1494 -30 -114 -85 -242 -147 -342 -75 -122 -249 -290
-409 -395 -197 -130 -320 -184 -505 -224 -117 -25 -370 -26 -493 -1 -400 81
-787 335 -1028 677 -108 153 -1207 1961 -1220 2007 -46 167 80 336 251 337 78
0 138 -25 191 -81 20 -21 195 -299 389 -618 194 -319 361 -589 371 -599 24
-26 81 -26 109 -1 48 43 57 27 -539 1004 -422 690 -563 928 -571 966 -20 89
12 196 77 257 100 95 279 88 369 -13 16 -20 276 -438 577 -931 301 -492 556
-903 567 -913 48 -43 137 2 128 64 -2 14 -292 496 -643 1071 -754 1234 -721
1178 -730 1241 -30 218 195 377 385 273z"/>
<path d="M4336 4699 c-20 -16 -26 -29 -26 -58 0 -47 17 -63 97 -90 224 -75
446 -322 524 -583 19 -62 23 -99 23 -241 1 -165 2 -169 25 -188 31 -25 64 -24
96 4 63 55 59 325 -8 522 -98 285 -347 547 -606 636 -69 24 -92 24 -125 -2z"/>
<path d="M4186 4277 c-34 -34 -34 -79 -1 -112 13 -14 31 -25 40 -25 33 0 112
-50 168 -107 37 -36 72 -86 95 -132 35 -71 37 -80 41 -192 3 -131 16 -159 71
-159 71 0 90 34 90 162 0 109 -16 176 -66 277 -71 143 -250 292 -372 308 -34
5 -44 1 -66 -20z"/>
<path d="M78 1825 c-31 -17 -40 -44 -64 -180 -38 -214 13 -466 136 -665 67
-109 166 -225 247 -291 85 -68 201 -129 246 -129 56 0 94 69 67 120 -5 10 -47
36 -92 58 -141 68 -271 207 -365 388 -67 128 -87 215 -87 369 0 91 5 148 17
191 23 82 22 100 -8 129 -27 28 -57 31 -97 10z"/>
<path d="M491 1732 c-21 -21 -31 -44 -40 -93 -25 -145 -1 -280 72 -408 77
-137 236 -271 319 -271 36 0 78 40 78 75 0 41 -18 65 -65 85 -96 41 -199 168
-237 293 -21 70 -21 112 -2 249 6 41 4 49 -19 72 -34 34 -71 33 -106 -2z"/>
</g>
</svg>
